<?xml version="1.0" encoding="UTF-8"?><svg id="Layer_2" xmlns="http://www.w3.org/2000/svg" viewBox="0 0 316.89 213.47"><defs><style>.cls-1{fill:#f7d581;}.cls-2{fill:#f1bc89;}.cls-3{fill:#e7b27f;}.cls-4{fill:#efe1cd;}.cls-5{fill:#9b2010;}.cls-6{fill:#af3424;}.cls-7{fill:#d8ae31;}.cls-8{fill:#ce341e;}.cls-9{fill:#cc904b;}.cls-10{fill:#d83e28;}.cls-11{fill:#a7ce76;}.cls-12{fill:#a52a1a;}.cls-13{fill:#6e4b33;}.cls-14{fill:#89b058;}.cls-15{fill:#502d15;}</style></defs><g id="artboard6"><g><ellipse class="cls-9" cx="167.61" cy="163.91" rx="137.38" ry="14.78"/><path class="cls-2" d="M32.53,161.12h0c-1.4,.48-4.06,1.6-6.45,4.17-.63,.68-3.24,3.62-3.98,8.16-.11,.66-.1,.89-.19,2.85-.42,9.12-.94,11.53-.19,15.94,.24,1.38,.35,2.06,.57,2.66,1.29,3.55,5.24,7.32,26.76,11.39,2.63,.5,8.02,1.47,18.79,2.85,10.16,1.3,18.1,2.06,20.49,2.28,17.82,1.62,64.15,3.7,139.85,0,4.2-.21,7.69-.39,12.33-.76,37.34-2.97,56-10.55,63-13.66,.29-.13,1.23-.24,2.09-.95,1.73-1.43,1.85-3.93,1.9-5.31,.47-13.09-.32-14.5,0-20.3,.04-.82,.11-1.78-.19-3.04-.85-3.5-3.74-5.81-6.07-7.21-.24,.34-.61,.82-1.14,1.33-1.6,1.52-3.37,2.03-4.17,2.28-3.59,1.1-4.61,2.1-7.4,3.04-18.77,6.29-53.13,8.54-53.13,8.54-11.6,.76-20.38,1.08-27.32,1.33-3.63,.13-17.45,.61-33.53,.69-32.56,.17-51.56,.27-73.31-2.04-16.18-1.72-38.8-5.29-65.67-13.49l-3.01-.72Z"/><ellipse class="cls-15" cx="165.51" cy="126.02" rx="122.46" ry="3.9"/><ellipse class="cls-15" cx="165.51" cy="123.64" rx="122.46" ry="3.9"/><path class="cls-13" d="M31,129.88c-1.52,1.42-4.4,4.16-6.2,8.72-2.41,6.09-1.32,11.52-.62,15.04,.47,2.38,1.46,7.06,4.96,12.03,.77,1.09,4.73,6.56,12.4,10.23,3.66,1.75,7.42,2.52,9,2.86,2.29,.49,4.1,.7,5.28,.83,8.75,.93,18.03,.87,18.14,.87,7.97-.05,13.61,.05,15,.07,6.94,.09,12.98-1.21,16.56-1.8,22.5-3.72,81.76-1.62,97.58-1.06,9.26,.33,42.18,1.61,48.36,1.89,.09,0,.38,.02,.77,.03,1.89,.07,6.27,.16,11.79-.33,5.37-.48,10.84-1,17.38-3.41,3.28-1.21,8.71-3.27,14.24-8.07,2.76-2.4,5.65-4.92,7.74-9.2,4.84-9.93,.77-19.98,.32-21.04-.76-1.8-4.15-9.5-12.18-13.06-3.22-1.43-6.37-1.83-19.16-.72-9.22,.8-13.83,1.2-18.89,2.13-36.44,6.72-154.28,1.48-172.71,.2-6.6-.46-9.89-.69-14.44-1.38-4.5-.68-6.62-1.24-11.17-1.6-5.03-.4-7.55-.59-10.74,0-7.37,1.37-12.14,5.57-13.42,6.77Z"/><g><path class="cls-1" d="M13.39,121.57l-.11,8.37c1.92,.09,4.59,.24,7.76,.51,9.29,.77,16.33,1.95,18.66,2.36,6.06,1.05,5.46,1.24,9.42,1.81,7.32,1.06,12.95,.95,15.4,.91,1.61-.03,15.69,.1,43.85,.36,5.17,.05,18.6-.73,29.17,.91,4.54,.7,8.88,1.81,8.88,1.81,5.68,1.45,9.35,2.98,11.6,3.8,10.02,3.7,11.93,1.14,30.26,5.07,5.88,1.26,10.08,2.47,13.95,3.8,4.29,1.48,7.8,3,10.33,4.17,.38,.15,.98,.34,1.72,.47,5.72,.97,10.44-4.05,15.02-7.78,0,0,9.45-7.7,22.39-11.6,2.08-.63,6.61-1.3,15.67-2.65,6.1-.9,12.67-1.87,21.37-2.65,4.37-.39,9.96-.79,16.48-1.02l1.7-.02-1.82-11.11-76.91,.5-193.68-1.44c-7.04,1.14-14.07,2.28-21.11,3.42Z"/><path class="cls-7" d="M15.5,120.81c42.23,3.6,84.45,7.19,126.68,10.79l73,12.79c.58-.23,1.45-.58,2.51-1,6.86-2.78,11.82-5.07,12.79-5.52,7.13-3.25,18.47-6.57,24.33-8.28,18.83-5.5,36.97-8.87,46.91-10.54-3.81-.51-9.36-1.22-16.05-2.01-13.96-1.64-50.89-5.71-113.42-7.54-33.15-.97-49.72-1.46-71.02-.48-26.62,1.22-48.89,3.85-65.04,6.21-.33,.06-.85,.15-1.47,.29-2.05,.46-3.52,1.02-3.85,1.15-1.36,.51-4.65,1.44-12.62,3.28l-2.73,.86Z"/></g><path class="cls-14" d="M41.52,103.87c2.03-.25,5-.53,8.68-.52,1.93,0,4.17,.01,7.13,.38,3.71,.45,4.33,.94,6.76,.94,2.73,0,4-.63,6.38-1.13,3.25-.68,5.98-.45,11.45,0,8.14,.68,7.73,1.74,13.7,1.88,4.39,.1,4.37-.47,10.51-.38,4.06,.07,5.29,.34,8.26,0,3.58-.41,4.58-1.12,7.7-1.69,3.6-.66,6.39-.46,10.89,0,10.12,1.03,13.45,1.78,18.21,2.25,6.68,.66,12.34,.19,23.65-.75,12.36-1.03,11.11-1.7,18.21-2.06,9.86-.5,17.48,.53,31.53,2.44,13.35,1.81,17.2,3.16,23.65,1.5,1.58-.41,4.74-1.36,9.2-1.5,3.63-.11,7.62-.23,11.64,1.88,2.37,1.24,2.78,2.23,4.88,2.63,2.67,.51,4.38-.63,7.32-1.69,1.75-.63,9.41-3.39,15.96-.75,.82,.33,5.24,2.11,5.26,4.5,.02,3.69-10.48,6.53-14.08,7.51-28.77,7.79-75.16,4.15-107.37,2.25-17.81-1.05-26.73-1.3-35.66-1.31-8.43-.01-12.07,.2-40.73,1.31,0,0-29.73,1.16-53.87-3,0,0-11.79-2.03-17.46-9.57-.7-.93-.91-1.65-.75-2.25,.47-1.77,4.03-2.25,8.96-2.86Z"/><path class="cls-11" d="M33.51,105.11c-8.46,1.65-9.31,.3-14.57,1.46-3.86,.85-10.65,3.17-18.07,10.78l-.87,1.17c2.14-.15,3.3,.53,3.79,.87,.46,.33,1,.86,1.31,1.17,.85,.83,1.18,1.32,1.46,1.6,.83,.85,2.24,1,4.95,.73,3.98-.4,6.85-1.31,6.85-1.31,2.36-.75,5.54-1.92,9.18-3.79-.16,.08-1.18,.63-1.38,1.71-.15,.77,.4,1.7,2.03,3,2.95,2.34,6.11,3.18,7.06,3.42,6.14,1.56,9.21,2.34,12.2,.96,1.36-.63,3.84-2.18,7.49-3.75,.48-.21,1.25-.52,2.14-.32,.94,.21,1.61,.92,3.21,3.53,2.3,3.77,1.77,3.6,2.35,4.17,1.61,1.58,2.85,.7,8.56,2.25,2.47,.67,3.02,1.04,4.49,.96,2.39-.13,4.17-1.29,4.82-1.71,2.86-1.9,2.77-3.78,4.82-4.49,.83-.29,1.75-.3,5.14,.96,6.54,2.43,7.51,4.07,11.77,4.92,2,.4,3.66,.41,5.56,.43,3.47,.03,5.21,.04,6.63-.75,2.23-1.23,1.64-2.71,4.71-5.89,1.64-1.7,3.12-3.24,5.46-3.64,1.92-.33,3.63,.25,5.46,.86,1.77,.59,2.77,1.2,3.96,1.82,.5,.26,4.93,2.51,10.49,3.42,3.2,.53,5.14,.34,7.49,.11,2.33-.23,3.44-.59,4.17-1.5,.91-1.13,.84-2.61,.75-3.32l-.32-1.28c.42,.43,1.02,1.01,1.82,1.61,.35,.26,1.68,1.25,3,1.71,1.72,.61,2.56,0,5.35-.21,1.79-.14,4.17-.32,6.53,.54,2.47,.9,2.15,1.93,4.82,3.21,.84,.4,4.27,2.06,7.81,1.07,1.52-.42,1.25-.82,5.78-3.1,2.48-1.25,3.14-1.42,3.75-1.5,2.1-.27,3.91,.49,5.56,1.39,5.86,3.21,5.42,5.89,9.2,7.49,1.85,.78,5.55,.24,12.95-.86,2.47-.36,4.99-.83,7.7-2.35,2.17-1.22,3.27-2.43,3.75-3,1.2-1.45,1.82-2.89,2.14-3.85l2.03,.54c.57,.27,1.43,.68,2.46,1.18,9.1,4.4,8.9,4.79,11.02,5.35,3.7,.97,6.76,.4,11.24-.43,3.4-.63,4.55-1.32,5.35-2.03,2.36-2.08,2.71-5.18,2.78-6.42l2.35,.86c.85,.48,2.09,1.17,3.64,1.93,3.73,1.82,8.8,4.3,15.62,5.14,5.64,.69,9.93-.05,11.34-.32,4.69-.91,7.44-2.48,8.13-2.89,1.59-.94,2.8-1.92,3.64-2.68l.52-.67c-.08-.36-.2-.87-.39-1.47-.51-1.6-1.92-5.1-7.7-9.76-4.11-3.31-6.16-4.97-8.14-4.96-3.73,.01-4.3,3.4-10.34,5.62-2.72,1-4.9,1.16-8.47,1.41-3.83,.27-6.88,.04-12-.35-5.79-.44-7.29-.86-9.88,0-1.12,.37-3.14,1.21-5.29,2.47-2.47,1.45-2.17,1.74-3.18,2.12-3.39,1.29-5.56-2.43-12.71-3.88-4.15-.84-6.42-.2-7.06,0-1.88,.59-2.35,1.3-4.24,2.12-1.92,.83-3.36,.92-8.12,1.06-6.88,.19-10.35,.29-12,0-2.51-.43-4.26-1.11-7.77-2.47-10.33-4-10.63-6.27-14.47-6-3.52,.25-3.43,2.16-11.29,4.59-3.1,.96-4.66,1.44-6.32,1.41-4.73-.08-5.9-2.74-11.54-3.66-2.56-.42-2.01,.18-7.32,0-7.18-.25-7.68-1.33-11.26-.84-4.47,.6-4.79,2.43-9.57,3.66-3.35,.86-6.17,.72-11.54,0-15.83-2.13-15.3-4.9-21.96-4.22-5.02,.51-7.63,2.35-17.18,3.66-2.52,.34-5.08,.59-7.32-.84-2.15-1.38-2.44-3.29-4.79-4.5-2.09-1.08-4.36-.72-5.63-.56-2.73,.33-3.22,1.25-5.35,1.41-2.57,.19-4.58-.97-5.91-1.69-3.49-1.89-3.45-3.59-5.91-4.79-2.58-1.25-4.91-.49-8.72,.25Z"/><g><ellipse id="_Ellipse_back" class="cls-5" cx="161.86" cy="94.41" rx="10.75" ry="82.32" transform="translate(67.15 256.1) rotate(-89.89)"/><path class="cls-8" d="M296.54,96.22c.98,4.21,1.95,8.43,2.93,12.64-1.1,.75-2.71,1.78-4.71,2.87-8.83,4.78-16.53,5.76-23.26,6.54-16.55,1.94-24.83,2.91-26.8,3-23.63,1.19-41.79,1.03-49.4,.74-10.14-.39-18.65-1.03-24.83-1.59l.47-17.35c.64,.15,1.62,.38,2.82,.64,0,0,7.35,1.59,14.11,2.4,11.61,1.38,33.14-.91,39.13-1.58,5.22-.59,.78-.17,29.05-4.08,9.32-1.29,15.32-2.1,23.6-4.04,6.6-1.55,11.97-3.18,15.56-4.36,.45,1.39,.89,2.78,1.34,4.17Z"/><ellipse class="cls-6" cx="100.03" cy="101.86" rx="10.71" ry="75.35" transform="translate(-10.56 192.16) rotate(-84.75)"/><ellipse class="cls-12" cx="232.96" cy="97.43" rx="62.32" ry="7.64" transform="translate(-8.23 22.68) rotate(-5.48)"/><path class="cls-10" d="M24.88,94.8c.19,3.69,.39,7.39,.58,11.08,.66,.33,1.64,.8,2.84,1.35,18.44,8.47,34.74,9.89,51.26,11.01,25.14,1.7,43.21,2.19,43.21,2.19,19.62,.53,37.09,.78,51.91,.89l.29-12.65c-2.79,0-6.79,0-11.6-.02-9.9-.05-21.17-.17-27.93-.32-8.79-.19-22.61-.49-40.05-2.18-9.26-.9-24.56-2.42-44.24-6.6-10.83-2.3-19.84-4.73-26.43-6.66l.16,1.91Z"/></g><path class="cls-3" d="M15.7,83.71c.48,1.29,1.38,3.2,3.11,4.97,1.4,1.44,2.99,2.42,7.29,4.2,3.65,1.51,5.62,2.32,8.52,3.11,19.78,5.36,39.6,6.57,39.6,6.57,23.1-.72,41.02,1.73,49.15,1.85,17.11,.24,25.66,.35,36.84-.14,18.05-.8,18.66-1.94,35.26-2.35,6.4-.16,19.39-.14,34.6,.17,7.55,.15,19.8,.87,37.31-1.13,11.45-1.31,17.19-1.82,22.29-3.69,5.8-2.13,13.07-4.79,16.41-11.69,2.16-4.44,1.76-8.75,1.33-13.39-.77-8.44-3.95-14.53-5.45-17.36-10.8-20.41-32.98-33.26-34.79-34.3-12.44-7.11-23.21-9.84-37.16-13.38-2.49-.63-14.01-3.51-30.06-5.37C178.07-.78,161.09,.09,156.32,.38c-39.72,2.4-69.35,14.79-80.82,20.06-7.21,3.31-22.67,10.88-37.12,23.36,0,0-12.16,10.51-20.84,26.42-.65,1.2-1.13,2.34-1.48,3.49-1.24,4.04-.83,7.69-.35,10Z"/><g><ellipse class="cls-4" cx="117.89" cy="12.91" rx="7.2" ry="2.28" transform="translate(14.01 70.12) rotate(-35.09)"/><ellipse class="cls-4" cx="138.52" cy="32.88" rx="2.28" ry="7.2" transform="translate(-3.34 44.85) rotate(-18.18)"/><ellipse class="cls-4" cx="173.36" cy="23.17" rx="2.28" ry="7.2" transform="translate(61.34 157.48) rotate(-57.78)"/><ellipse class="cls-4" cx="159.64" cy="40.91" rx="7.2" ry="2.28" transform="translate(106.62 196.95) rotate(-85.61)"/><ellipse class="cls-4" cx="213.83" cy="13.13" rx="7.2" ry="2.28" transform="translate(32.49 127.19) rotate(-35.68)"/><ellipse class="cls-4" cx="150.95" cy="13.31" rx="7.2" ry="2.28" transform="translate(49.04 125.46) rotate(-52.78)"/><ellipse class="cls-4" cx="187.36" cy="12.08" rx="2.28" ry="7.2" transform="translate(75.52 162.89) rotate(-57.13)"/><ellipse class="cls-4" cx="200.9" cy="33.79" rx="2.28" ry="7.2" transform="translate(-.21 66.3) rotate(-18.73)"/><ellipse class="cls-4" cx="227.81" cy="30.88" rx="2.28" ry="7.2" transform="translate(135.49 241.43) rotate(-74.04)"/><ellipse class="cls-4" cx="115.08" cy="34.94" rx="7.2" ry="2.28" transform="translate(29.88 119.82) rotate(-61.78)"/><ellipse class="cls-4" cx="89.57" cy="26.81" rx="7.2" ry="2.28" transform="translate(-3.28 15.8) rotate(-9.9)"/><ellipse class="cls-4" cx="247.73" cy="21.71" rx="2.28" ry="7.2" transform="translate(162.2 255.22) rotate(-74.89)"/></g></g></g></svg>